<svg width="165" height="31" viewBox="0 0 165 31" fill="none" xmlns="http://www.w3.org/2000/svg">
<path d="M10.6902 18.1126C11.7297 17.8014 12.6793 17.2636 13.5155 16.5674C12.6967 17.1809 11.7033 17.7501 10.6902 18.1126Z" fill="white"/>
<path d="M15.4925 14.3242C14.9424 15.1732 14.2749 15.9353 13.5155 16.5674C14.5958 15.7575 15.3743 14.8787 15.4925 14.3242Z" fill="white"/>
<path d="M10.1076 18.2915C10.074 18.2992 10.0428 18.3108 10.0098 18.3204C10.2365 18.2625 10.4639 18.1924 10.69 18.1113C10.4861 18.1725 10.2779 18.222 10.068 18.2651C10.1028 18.2786 10.119 18.2883 10.1076 18.2915Z" fill="white"/>
<path d="M16.8266 8.52042L15.961 6.27637L15.4188 8.63465L13.1561 8.82331L15.0841 10.1029L14.5538 12.4644L16.2874 10.8967L18.2231 12.1672L17.3635 9.9187L19.0923 8.34331L16.8266 8.52042Z" fill="white"/>
<path d="M23.3824 0C20.2446 0 17.4996 1.79678 15.9952 4.48041C14.4907 1.79678 11.7458 0 8.60795 0C3.85408 0 0 4.12298 0 9.20852C0 11.7214 0.941776 13.9982 2.46781 15.6596L2.46961 15.6641L15.9886 30.1263L29.1819 16.0125C30.907 14.3287 31.9898 11.9037 31.9898 9.20852C31.9904 4.12233 28.1369 0 23.3824 0ZM26.0176 14.1137L25.6955 14.4596L25.6457 14.5129L22.1029 18.3144L21.9704 18.4562L14.6281 26.3351L9.31818 20.6547C8.49758 19.6581 9.02545 18.6115 10.0092 18.3195C10.0416 18.3099 10.0734 18.2983 10.107 18.2906C10.1184 18.288 10.1028 18.2792 10.068 18.2651C10.2779 18.222 10.4861 18.1725 10.69 18.1113C11.7032 17.7488 12.696 17.1798 13.5148 16.5657C14.2742 15.9336 14.9412 15.1719 15.4913 14.3229C14.297 15.6025 12.648 16.3956 10.8238 16.3956C7.17969 16.3956 3.85468 13.2352 3.85468 9.33686C3.85468 5.43848 7.17969 2.27806 10.8238 2.27806C12.8345 2.27806 14.6323 3.24319 15.8422 4.76083C15.8944 4.82629 15.9454 4.89367 15.9952 4.96169C16.045 4.89431 16.0948 4.82821 16.1464 4.76276C17.3569 3.24384 19.1552 2.27806 21.1666 2.27806C24.8107 2.27806 28.1357 5.43848 28.1357 9.33686C28.1381 11.1831 27.1003 12.8566 26.0176 14.1137Z" fill="white"/>
<path d="M23.2631 12.9891C23.1486 13.1425 23.1822 13.4056 23.3375 13.7437C24.1869 13.9414 25.6212 14.7872 27.0926 16.0147C28.5641 17.2423 29.6762 18.5206 30.0565 19.3484C30.4032 19.4293 30.6528 19.4023 30.7673 19.249C31.1615 18.7195 29.801 16.8894 27.7291 15.1606C25.6566 13.4319 23.6572 12.4597 23.2631 12.9891Z" fill="url(#paint0_linear_1312_715)"/>
<path d="M19.7131 18.1601C19.7389 18.3546 19.9411 18.5118 20.2782 18.6286C20.9974 18.1171 22.5607 17.6089 24.4094 17.3381C26.2582 17.0673 27.8946 17.1071 28.72 17.3927C29.0139 17.1835 29.1669 16.9743 29.1411 16.7798C29.0517 16.1099 26.8688 15.8757 24.2655 16.2575C21.6621 16.638 19.6238 17.4902 19.7131 18.1601Z" fill="url(#paint1_linear_1312_715)"/>
<path d="M28.72 17.3927C28.4615 17.5762 28.0942 17.7591 27.6437 17.9317C27.6246 17.9388 27.6048 17.9465 27.585 17.9536C27.5844 17.9536 27.5838 17.9542 27.5832 17.9542C27.5646 17.9613 27.5454 17.9683 27.5262 17.9754C27.525 17.976 27.5238 17.976 27.5226 17.9767C27.504 17.9837 27.4854 17.9901 27.4662 17.9972C27.4644 17.9978 27.4626 17.9985 27.4608 17.9991C27.4422 18.0055 27.4242 18.012 27.4056 18.019C27.4032 18.0197 27.4008 18.0209 27.3978 18.0216C27.3798 18.028 27.3618 18.0344 27.3438 18.0402C27.3408 18.0415 27.3378 18.0421 27.3348 18.0434C27.3174 18.0492 27.2994 18.0556 27.2814 18.0614C27.2778 18.0627 27.2742 18.0639 27.2706 18.0652C27.2532 18.071 27.2358 18.0768 27.2185 18.0826C27.2143 18.0838 27.2095 18.0858 27.2053 18.087C27.1885 18.0928 27.1717 18.098 27.1543 18.1037C27.1495 18.1057 27.1441 18.1069 27.1393 18.1089C27.1225 18.114 27.1063 18.1198 27.0895 18.1249C27.0835 18.1268 27.0781 18.1288 27.0721 18.13C27.0559 18.1352 27.0397 18.1403 27.0235 18.1454C27.0169 18.1474 27.0103 18.1493 27.0043 18.1512C26.9887 18.1563 26.9731 18.1608 26.9569 18.166C26.9497 18.1679 26.9431 18.1705 26.9359 18.1724C26.9209 18.1769 26.9053 18.1814 26.8897 18.1865C26.8819 18.1891 26.8741 18.191 26.8663 18.1936C26.8513 18.1981 26.8369 18.2025 26.8219 18.2064C26.8135 18.209 26.8046 18.2115 26.7962 18.2141C26.7818 18.218 26.7674 18.2224 26.753 18.2263C26.744 18.2289 26.7344 18.2314 26.7254 18.234C26.0913 18.4143 25.3655 18.5696 24.5893 18.6832C23.8131 18.7968 23.0746 18.8558 22.4178 18.8648C22.4082 18.8648 22.3986 18.8648 22.389 18.8654C22.374 18.8654 22.359 18.8661 22.3446 18.8661C22.3356 18.8661 22.3266 18.8661 22.3182 18.8661C22.3026 18.8661 22.2876 18.8661 22.272 18.8661C22.2636 18.8661 22.2558 18.8661 22.2474 18.8661C22.2312 18.8661 22.2156 18.8661 22.1994 18.8661C22.1922 18.8661 22.185 18.8661 22.1772 18.8661C22.1611 18.8661 22.1443 18.8661 22.1281 18.8654C22.1215 18.8654 22.1143 18.8654 22.1077 18.8654C22.0909 18.8654 22.0741 18.8648 22.0573 18.8648C22.0513 18.8648 22.0453 18.8648 22.0393 18.8648C22.0219 18.8648 22.0045 18.8642 21.9871 18.8635C21.9817 18.8635 21.9763 18.8635 21.9709 18.8629C21.9529 18.8622 21.9355 18.8622 21.9175 18.8616C21.9127 18.8616 21.9079 18.8616 21.9037 18.8609C21.8857 18.8603 21.8671 18.8597 21.8491 18.859C21.8455 18.859 21.8413 18.859 21.8377 18.8584C21.8191 18.8577 21.8005 18.8571 21.7819 18.8565C21.7789 18.8565 21.7753 18.8565 21.7723 18.8558C21.7532 18.8552 21.734 18.8539 21.7154 18.8532C21.713 18.8532 21.71 18.8532 21.7076 18.8526C21.6878 18.852 21.6686 18.8507 21.6494 18.8494C21.6476 18.8494 21.6452 18.8494 21.6434 18.8487C21.6236 18.8475 21.6038 18.8468 21.584 18.8455C21.5828 18.8455 21.581 18.8455 21.5798 18.8455C21.5594 18.8443 21.5396 18.843 21.5192 18.8417C21.5186 18.8417 21.518 18.8417 21.5168 18.8417C21.4964 18.8404 21.4754 18.8391 21.4556 18.8372C20.9775 18.8013 20.5751 18.7306 20.2782 18.6286C20.1084 18.5702 19.9734 18.5003 19.8774 18.4214L19.8024 17.8605C19.1696 18.884 20.0214 19.5027 20.0214 19.5027C20.584 19.9653 22.5048 20.0898 24.7332 19.7638C26.9623 19.4372 28.7769 18.766 29.1968 18.1589C29.1968 18.1589 29.8542 17.3202 28.9778 16.5174L29.0528 17.0776C28.9808 17.1809 28.8682 17.2874 28.72 17.3927Z" fill="url(#paint2_linear_1312_715)"/>
<path d="M19.7131 18.1601C19.7137 18.1627 19.7137 18.1662 19.7143 18.1688C19.7143 18.1695 19.7149 18.1707 19.7149 18.1714C19.7155 18.1733 19.7155 18.1752 19.7161 18.1772C19.7161 18.1784 19.7167 18.1791 19.7167 18.1804C19.7173 18.1823 19.7173 18.1842 19.7179 18.1861C19.7179 18.1874 19.7185 18.1881 19.7185 18.1894C19.7191 18.1913 19.7191 18.1932 19.7197 18.1951C19.7197 18.1958 19.7203 18.1971 19.7203 18.1977C19.7209 18.1996 19.7215 18.2022 19.7221 18.2041C19.7221 18.2048 19.7227 18.2054 19.7227 18.206C19.7251 18.2144 19.7281 18.2234 19.7311 18.2317C19.7323 18.2343 19.7335 18.2375 19.7347 18.24C19.7347 18.2407 19.7347 18.2407 19.7353 18.2413C19.7365 18.2439 19.7377 18.2465 19.7389 18.249C20.0023 18.8503 22.1048 19.048 24.59 18.6841C27.0752 18.3203 29.0457 17.5271 29.1417 16.8732C29.1423 16.8706 29.1423 16.8668 29.1429 16.8642C29.1429 16.8636 29.1429 16.8636 29.1429 16.8629C29.1435 16.8604 29.1435 16.8578 29.1435 16.8546C29.1435 16.854 29.1435 16.854 29.1435 16.8533C29.1441 16.8443 29.1447 16.8353 29.1447 16.8264C29.1447 16.8257 29.1447 16.8251 29.1447 16.8244C29.1447 16.8225 29.1447 16.8199 29.1447 16.818C29.1447 16.8174 29.1447 16.8161 29.1447 16.8155C29.1447 16.8135 29.1447 16.8116 29.1447 16.8097C29.1447 16.8084 29.1447 16.8078 29.1447 16.8065C29.1447 16.8045 29.1447 16.8026 29.1441 16.8007C29.1441 16.7994 29.1441 16.7988 29.1441 16.7975C29.1441 16.7956 29.1435 16.7936 29.1435 16.7917C29.1435 16.7911 29.1435 16.7898 29.1435 16.7891C29.1429 16.7866 29.1429 16.7834 29.1423 16.7808C29.0529 16.1109 26.87 15.8766 24.2667 16.2584C21.6621 16.6383 19.6238 17.4902 19.7131 18.1601ZM28.9042 16.8142C28.9047 16.8174 28.9048 16.8212 28.9054 16.8251C28.9054 16.8257 28.9054 16.8264 28.9054 16.827C28.9054 16.8302 28.906 16.8341 28.906 16.8373C28.906 16.8379 28.906 16.8386 28.906 16.8392C28.906 16.843 28.906 16.8463 28.906 16.8501C28.906 16.8533 28.9054 16.8578 28.9054 16.861C28.9054 16.8617 28.9054 16.8623 28.9054 16.8629C28.9048 16.8661 28.9047 16.87 28.9042 16.8732C28.9042 16.8738 28.9042 16.8751 28.9036 16.8758C28.903 16.879 28.9024 16.8828 28.9018 16.8867C28.9018 16.8873 28.9018 16.8873 28.9018 16.888C28.9012 16.8912 28.9006 16.8944 28.8994 16.8976C28.8994 16.8982 28.8988 16.8995 28.8988 16.9002C28.8982 16.9034 28.897 16.9072 28.8958 16.9104C28.8958 16.9117 28.8952 16.9123 28.8952 16.9136C28.894 16.9168 28.8928 16.9207 28.8916 16.9239C28.8916 16.9245 28.891 16.9252 28.891 16.9265C28.8898 16.9297 28.8886 16.9322 28.8874 16.9355C28.8868 16.9367 28.8868 16.9374 28.8862 16.9387C28.885 16.9419 28.8832 16.9451 28.882 16.9489C28.8814 16.9502 28.8808 16.9515 28.8802 16.9528C28.879 16.956 28.8772 16.9592 28.8754 16.963C28.8748 16.9643 28.8742 16.9656 28.8736 16.9663C28.8724 16.9688 28.8712 16.9714 28.8694 16.974C28.8688 16.9752 28.8682 16.9765 28.8676 16.9778C28.8658 16.981 28.864 16.9842 28.8622 16.9874C28.8616 16.9887 28.8604 16.9906 28.8598 16.9919C28.858 16.9951 28.8562 16.9983 28.8544 17.0015C28.8532 17.0028 28.8526 17.0048 28.8514 17.006C28.8502 17.0086 28.8484 17.0105 28.8472 17.0131C28.846 17.015 28.8448 17.0169 28.8436 17.0189C28.8418 17.0214 28.84 17.024 28.8382 17.0272C28.837 17.0291 28.8358 17.0311 28.8346 17.0323C28.8328 17.0349 28.831 17.0375 28.8292 17.0401C28.8274 17.0426 28.8256 17.0445 28.8238 17.0471C28.8226 17.049 28.8208 17.051 28.8196 17.0522C28.8172 17.0555 28.8148 17.058 28.8124 17.0612C28.8112 17.0632 28.8094 17.0651 28.8082 17.0664C28.8064 17.0683 28.8046 17.0709 28.8028 17.0728C28.8016 17.0747 28.7998 17.076 28.7986 17.0779C28.7956 17.0811 28.7926 17.0843 28.7902 17.0882C28.789 17.0895 28.7878 17.0907 28.7866 17.092C28.783 17.0959 28.7794 17.0997 28.7758 17.1036C28.7746 17.1049 28.774 17.1055 28.7728 17.1068C28.7704 17.1094 28.768 17.1119 28.7656 17.1145C28.7608 17.1196 28.7554 17.1254 28.75 17.1299C28.7494 17.1305 28.7482 17.1318 28.7476 17.1325C28.7428 17.1369 28.738 17.1414 28.7332 17.1466C28.7326 17.1472 28.732 17.1479 28.7314 17.1485C28.723 17.1568 28.714 17.1645 28.705 17.1729C28.7044 17.1735 28.7044 17.1735 28.7038 17.1742C28.6978 17.1793 28.6918 17.1844 28.6858 17.1902C28.6336 17.2351 28.5712 17.282 28.5016 17.3288C27.8418 17.7677 26.4207 18.2554 24.569 18.5262C22.7172 18.7977 21.223 18.7367 20.4738 18.5044C20.3946 18.48 20.3232 18.4531 20.2608 18.4249C20.2536 18.4216 20.2458 18.4184 20.2386 18.4146C20.238 18.4146 20.2374 18.4139 20.2368 18.4139C20.226 18.4088 20.2152 18.4037 20.205 18.3979C20.2044 18.3973 20.2038 18.3973 20.2026 18.3966C20.1966 18.3934 20.1912 18.3902 20.1852 18.3876C20.184 18.387 20.1828 18.3864 20.1822 18.3857C20.1762 18.3825 20.1702 18.3787 20.1642 18.3754C20.1612 18.3735 20.1576 18.3716 20.1552 18.3697C20.154 18.369 20.1528 18.3684 20.1516 18.3671C20.1474 18.3645 20.1426 18.362 20.1384 18.3588C20.1366 18.3581 20.1354 18.3568 20.1336 18.3562C20.13 18.3536 20.1264 18.3517 20.1228 18.3491C20.121 18.3479 20.1192 18.3466 20.1174 18.3453C20.115 18.344 20.1126 18.3421 20.1108 18.3408C20.109 18.3395 20.1072 18.3382 20.1054 18.3369C20.1025 18.335 20.0995 18.3325 20.0965 18.3305C20.0947 18.3292 20.0929 18.328 20.0911 18.3267C20.0887 18.3248 20.0863 18.3235 20.0845 18.3215C20.0821 18.3196 20.0797 18.3177 20.0773 18.3158C20.0755 18.3145 20.0737 18.3132 20.0725 18.3119C20.0701 18.31 20.0677 18.3081 20.0653 18.3055C20.0635 18.3042 20.0617 18.3023 20.0599 18.301C20.0581 18.2991 20.0557 18.2978 20.0539 18.2959C20.0527 18.2946 20.0515 18.2933 20.0497 18.292C20.0467 18.2895 20.0443 18.2869 20.0419 18.2843C20.0407 18.283 20.0395 18.2818 20.0383 18.2805C20.0359 18.2779 20.0329 18.2753 20.0305 18.2728C20.0293 18.2715 20.0287 18.2708 20.0275 18.2696C20.0257 18.2676 20.0233 18.2651 20.0215 18.2631C20.0209 18.2625 20.0197 18.2612 20.0191 18.2606C20.0167 18.258 20.0143 18.2548 20.0119 18.2522C20.0113 18.251 20.0101 18.2503 20.0095 18.249C20.0071 18.2465 20.0047 18.2433 20.0029 18.2407C20.0023 18.24 20.0017 18.2388 20.0011 18.2381C19.9993 18.2356 19.9975 18.233 19.9957 18.2304C19.9951 18.2298 19.9945 18.2291 19.9945 18.2285C19.9927 18.2253 19.9903 18.2227 19.9885 18.2195C19.9879 18.2189 19.9873 18.2176 19.9867 18.2169C19.9849 18.2137 19.9831 18.2112 19.9813 18.208C19.9807 18.2073 19.9807 18.2067 19.9801 18.206C19.9783 18.2028 19.9771 18.2003 19.9753 18.1971C19.9753 18.1964 19.9747 18.1964 19.9747 18.1958C19.9729 18.1926 19.9717 18.1894 19.9699 18.1861C19.9693 18.1855 19.9693 18.1849 19.9687 18.1842C19.9675 18.181 19.9663 18.1778 19.9651 18.1746C19.9651 18.1739 19.9645 18.1733 19.9645 18.1727C19.9633 18.1695 19.9621 18.1662 19.9609 18.163C19.9597 18.1598 19.9591 18.1553 19.9579 18.1521C19.9579 18.1515 19.9573 18.1508 19.9573 18.1502C19.9567 18.147 19.9555 18.1438 19.9549 18.1399C19.9549 18.1393 19.9549 18.1387 19.9543 18.138C19.9537 18.1348 19.9531 18.131 19.9525 18.1277C19.8859 17.6291 21.6501 16.8039 24.2883 16.4176C26.9264 16.0313 28.8376 16.3156 28.9042 16.8142Z" fill="url(#paint3_linear_1312_715)"/>
<path d="M26.6433 17.1565C26.5575 17.0871 26.4735 17.0223 26.3871 16.9497C26.1112 16.7191 25.8575 16.4917 25.6163 16.2676C25.5467 16.2721 25.4753 16.2785 25.4046 16.2843C25.431 16.3093 25.4574 16.3344 25.4843 16.3594C25.5737 16.4429 25.6649 16.5258 25.7579 16.6093C25.7987 16.6459 25.8389 16.6825 25.8803 16.7191C26.0146 16.8379 26.152 16.9567 26.2936 17.0749C26.3277 17.1038 26.3769 17.1417 26.4111 17.17C26.4963 17.1681 26.5605 17.1571 26.6433 17.1565Z" fill="url(#paint4_linear_1312_715)"/>
<path d="M25.4045 16.2856C25.3883 16.2701 25.3733 16.2546 25.3571 16.2392C25.3217 16.205 25.2845 16.1709 25.2492 16.1367C24.9288 16.1657 24.5983 16.205 24.26 16.2546C24.1538 16.2701 24.05 16.2882 23.9457 16.3049C23.9895 16.3526 24.0278 16.3983 24.0734 16.4467C24.143 16.4357 24.2108 16.4235 24.2816 16.4132" fill="url(#paint5_linear_1312_715)"/>
<path d="M25.6163 16.2676C25.5635 16.2177 25.508 16.1683 25.457 16.1191C25.3879 16.1243 25.3194 16.1302 25.2492 16.1367C25.2846 16.171 25.3189 16.2046 25.3549 16.2389C25.3711 16.2545 25.3883 16.27 25.4045 16.2856C25.476 16.2791 25.5467 16.2728 25.6163 16.2676Z" fill="url(#paint6_linear_1312_715)"/>
<path d="M23.96 16.3184L22.7813 17.5832L22.6487 17.725L21.9955 18.4334C21.9955 18.4334 26.1729 18.4065 25.4957 17.7911C24.7812 17.1417 24.4267 16.8311 23.96 16.3184Z" fill="white"/>
<path d="M30.0565 19.3484C30.0565 19.3478 30.0565 19.3478 30.0565 19.3484C29.7512 19.2772 29.3703 19.122 28.9396 18.8961C28.921 18.8865 28.9024 18.8769 28.8838 18.8666C28.8832 18.866 28.8826 18.866 28.882 18.8653C28.864 18.8557 28.846 18.8461 28.828 18.8365C28.8268 18.8358 28.8256 18.8352 28.8244 18.8345C28.807 18.8249 28.789 18.8153 28.7716 18.8057C28.7698 18.805 28.768 18.8037 28.7662 18.8031C28.7488 18.7935 28.732 18.7838 28.7146 18.7742C28.7122 18.7729 28.7099 18.7717 28.7075 18.7704C28.6907 18.7607 28.6739 18.7511 28.6571 18.7421C28.6541 18.7402 28.6511 18.7389 28.6487 18.737C28.6325 18.7274 28.6157 18.7184 28.5989 18.7088C28.5953 18.7068 28.5923 18.7049 28.5887 18.703C28.5725 18.694 28.5569 18.6844 28.5407 18.6754C28.5365 18.6728 28.5323 18.6709 28.5281 18.6683C28.5125 18.6594 28.4969 18.6504 28.4813 18.6407C28.4765 18.6382 28.4723 18.635 28.4675 18.6324C28.4525 18.6234 28.4369 18.6144 28.4219 18.6055C28.4165 18.6022 28.4117 18.599 28.4063 18.5958C28.3919 18.5868 28.3769 18.5779 28.3625 18.5695C28.3565 18.5657 28.3505 18.5625 28.3451 18.5586C28.3307 18.5503 28.3169 18.5413 28.3025 18.5323C28.2959 18.5284 28.29 18.5246 28.2834 18.5207C28.2696 18.5124 28.2558 18.5034 28.242 18.4951C28.2348 18.4906 28.2282 18.4861 28.221 18.4822C28.2078 18.4739 28.1946 18.4656 28.1814 18.4572C28.1736 18.4521 28.1658 18.4476 28.1586 18.4425C28.146 18.4341 28.1328 18.4264 28.1202 18.4181C28.1118 18.4129 28.104 18.4078 28.0956 18.402C27.5317 18.0407 26.9205 17.5928 26.3026 17.0775C25.6848 16.5623 25.1305 16.038 24.6674 15.5419C24.6608 15.5349 24.6536 15.5272 24.647 15.5201C24.6368 15.5086 24.626 15.4977 24.6158 15.4861C24.6098 15.4791 24.6032 15.4726 24.5972 15.4656C24.5864 15.454 24.5756 15.4418 24.5648 15.4303C24.5594 15.4239 24.5534 15.4181 24.548 15.4117C24.5366 15.3995 24.5258 15.3873 24.5145 15.3751C24.5097 15.3693 24.5043 15.3635 24.4995 15.3584C24.4881 15.3456 24.4767 15.3334 24.4653 15.3205C24.4605 15.3154 24.4557 15.3103 24.4515 15.3051C24.4401 15.2923 24.4281 15.2788 24.4167 15.266C24.4125 15.2615 24.4083 15.257 24.4047 15.2519C24.3927 15.2384 24.3807 15.2249 24.3693 15.2115C24.3657 15.2076 24.3621 15.2031 24.3585 15.1993C24.3465 15.1851 24.3345 15.1717 24.3225 15.1576C24.3195 15.1537 24.3159 15.1505 24.3129 15.1466C24.3003 15.1325 24.2883 15.1178 24.2763 15.1037C24.2739 15.1004 24.2709 15.0972 24.2685 15.0947C24.2559 15.0799 24.2433 15.0651 24.2307 15.0504C24.2283 15.0478 24.2265 15.0453 24.2241 15.0427C24.2115 15.0273 24.1989 15.0125 24.1863 14.9971C24.1845 14.9952 24.1827 14.9926 24.1809 14.9907C24.1677 14.9753 24.1551 14.9599 24.1425 14.9439C24.1413 14.9426 24.1401 14.9407 24.1389 14.9394C24.1257 14.9233 24.1125 14.9073 24.0999 14.8919C24.0993 14.8906 24.0981 14.89 24.0975 14.8887C24.0844 14.8726 24.0712 14.856 24.058 14.8399C24.0574 14.8393 24.0568 14.8386 24.0568 14.838C24.0436 14.8213 24.0304 14.8046 24.0172 14.7879C23.7088 14.3971 23.4779 14.0416 23.3411 13.7445C23.2631 13.5745 23.2158 13.423 23.2026 13.2953L23.5325 12.8525C22.3946 13.0726 22.5667 14.1501 22.5667 14.1501C22.6087 14.562 23.0058 15.2172 23.6501 15.9693C24.1773 16.5854 24.8702 17.2668 25.6692 17.9329C25.7388 17.9907 25.8083 18.0478 25.8773 18.1043C27.5767 19.484 29.1915 20.3342 29.8694 20.2418C29.8694 20.2418 30.8987 20.1674 30.8351 18.9449L30.5058 19.3877C30.3811 19.4018 30.2311 19.3888 30.0565 19.3484Z" fill="white"/>
<path d="M23.2631 12.9872C23.2613 12.9898 23.2595 12.9917 23.2583 12.9943C23.2577 12.9949 23.2571 12.9956 23.2565 12.9962C23.2553 12.9975 23.2541 12.9994 23.2535 13.0007C23.2529 13.0014 23.2523 13.0026 23.2517 13.0033C23.2505 13.0046 23.2499 13.0065 23.2487 13.0078C23.2481 13.0084 23.2475 13.0097 23.2469 13.0104C23.2457 13.0123 23.2451 13.0136 23.2439 13.0155C23.2433 13.0161 23.2427 13.0174 23.2427 13.0181C23.2415 13.02 23.2403 13.0219 23.2397 13.0238C23.2391 13.0245 23.2391 13.0251 23.2385 13.0258C23.2343 13.0335 23.2307 13.0418 23.2271 13.0495C23.2259 13.0521 23.2247 13.0553 23.2235 13.0578C23.2235 13.0585 23.2235 13.0585 23.2229 13.0591C23.2217 13.0617 23.2211 13.0643 23.2199 13.0668C22.9937 13.6822 24.323 15.4257 26.3013 17.0762C28.2797 18.7267 30.1914 19.6873 30.7037 19.3106C30.7061 19.3087 30.7085 19.3074 30.7109 19.3055C30.7127 19.3036 30.7157 19.3017 30.7175 19.2997C30.7241 19.294 30.7313 19.2875 30.7373 19.2818C30.7379 19.2811 30.7385 19.2811 30.7385 19.2805C30.7403 19.2792 30.7415 19.2773 30.7427 19.276C30.7433 19.2753 30.7439 19.2747 30.7445 19.2741C30.7457 19.2728 30.7469 19.2715 30.7481 19.2702C30.7487 19.2696 30.7493 19.2689 30.7499 19.2676C30.7511 19.2664 30.7523 19.2651 30.7535 19.2638C30.7541 19.2632 30.7547 19.2625 30.7553 19.2612C30.7565 19.2599 30.7577 19.258 30.7589 19.2567C30.7595 19.2561 30.7601 19.2555 30.7607 19.2548C30.7625 19.2529 30.7643 19.2503 30.7661 19.2484C31.1602 18.719 29.7997 16.8888 27.7278 15.1601C27.1843 14.7064 26.6457 14.3053 26.1394 13.9691C24.7177 13.0232 23.5534 12.5964 23.2631 12.9872ZM30.5777 19.0893C30.5759 19.0918 30.5735 19.095 30.5711 19.0976C30.5705 19.0982 30.5705 19.0989 30.5699 19.0989C30.5675 19.1014 30.5657 19.104 30.5633 19.1066C30.5627 19.1072 30.5621 19.1072 30.5621 19.1079C30.5597 19.1104 30.5573 19.113 30.5549 19.1149C30.5525 19.1175 30.5495 19.1201 30.5465 19.122C30.5459 19.1226 30.5453 19.1226 30.5447 19.1233C30.5423 19.1252 30.5393 19.1278 30.5369 19.1297C30.5363 19.1303 30.5357 19.1303 30.5351 19.131C30.5321 19.1329 30.5297 19.1348 30.5267 19.1367C30.5261 19.1367 30.5261 19.1374 30.5255 19.1374C30.5231 19.1393 30.5201 19.1406 30.5171 19.1425C30.5165 19.1432 30.5159 19.1432 30.5153 19.1438C30.5123 19.1457 30.5093 19.147 30.5063 19.1489C30.5057 19.1496 30.5045 19.1496 30.5039 19.1502C30.5009 19.1515 30.4979 19.1534 30.4943 19.1547C30.4937 19.1554 30.4931 19.1553 30.4919 19.1553C30.4889 19.1566 30.4865 19.1579 30.4835 19.1592C30.4823 19.1598 30.4817 19.1598 30.4805 19.1605C30.4775 19.1618 30.474 19.163 30.471 19.1643C30.4698 19.165 30.4685 19.165 30.4673 19.1656C30.4637 19.1669 30.4608 19.1682 30.4572 19.1688C30.456 19.1695 30.4548 19.1695 30.4536 19.1701C30.4506 19.1708 30.4482 19.172 30.4452 19.1727C30.444 19.1733 30.4428 19.1733 30.441 19.174C30.4374 19.1746 30.4344 19.1759 30.4308 19.1765C30.429 19.1772 30.4278 19.1772 30.426 19.1778C30.4224 19.1785 30.4194 19.1791 30.4158 19.1797C30.414 19.1804 30.4122 19.1804 30.4104 19.1804C30.408 19.181 30.4056 19.181 30.4026 19.1817C30.4002 19.1823 30.3984 19.1823 30.396 19.1829C30.393 19.1836 30.39 19.1836 30.3864 19.1842C30.384 19.1842 30.3822 19.1849 30.3798 19.1849C30.3768 19.1855 30.3738 19.1855 30.3708 19.1862C30.3678 19.1862 30.3654 19.1868 30.3624 19.1868C30.36 19.1868 30.3582 19.1874 30.3558 19.1874C30.3522 19.1874 30.3486 19.1881 30.345 19.1881C30.3426 19.1881 30.3402 19.1881 30.3384 19.1887C30.336 19.1887 30.333 19.1887 30.3306 19.1894C30.3282 19.1894 30.3264 19.1894 30.324 19.1894C30.3198 19.1894 30.3156 19.1894 30.3114 19.1894C30.3096 19.1894 30.3078 19.1894 30.306 19.1894C30.3012 19.1894 30.2958 19.1894 30.291 19.1894C30.2898 19.1894 30.288 19.1894 30.2868 19.1894C30.2838 19.1894 30.2802 19.1894 30.2766 19.1894C30.27 19.1894 30.2622 19.1887 30.2556 19.1887C30.2544 19.1887 30.2532 19.1887 30.252 19.1887C30.2454 19.1881 30.2394 19.1881 30.2328 19.1874C30.2322 19.1874 30.231 19.1874 30.2304 19.1874C30.219 19.1868 30.2076 19.1855 30.1956 19.1842C30.195 19.1842 30.1944 19.1842 30.1938 19.1842C30.186 19.1836 30.1782 19.1823 30.1704 19.181C30.1032 19.172 30.0283 19.1566 29.9479 19.1355C29.1897 18.9333 27.8682 18.1819 26.3943 16.9524C24.9205 15.7229 23.9211 14.5383 23.5582 13.8054C23.5198 13.7278 23.4886 13.6553 23.4646 13.5879C23.4616 13.5802 23.4592 13.5718 23.4562 13.5641C23.4562 13.5635 23.4556 13.5629 23.4556 13.5622C23.4514 13.55 23.4478 13.5385 23.4442 13.5269C23.4442 13.5263 23.4436 13.525 23.4436 13.5244C23.4418 13.5179 23.4394 13.5115 23.4376 13.5045C23.437 13.5032 23.437 13.5019 23.4364 13.5006C23.4346 13.4936 23.4328 13.4865 23.431 13.4801C23.4304 13.4769 23.4292 13.4724 23.4286 13.4692C23.428 13.4679 23.428 13.466 23.4274 13.4647C23.4262 13.4595 23.425 13.4544 23.4238 13.4493C23.4232 13.4474 23.4232 13.4454 23.4226 13.4441C23.4214 13.4397 23.4208 13.4352 23.4196 13.4307C23.419 13.4281 23.4184 13.4262 23.4184 13.4236C23.4178 13.421 23.4172 13.4178 23.4166 13.4153C23.416 13.4127 23.416 13.4108 23.4154 13.4082C23.4148 13.4044 23.4142 13.4005 23.4136 13.3967C23.413 13.3941 23.413 13.3922 23.4124 13.3896C23.4118 13.3864 23.4118 13.3838 23.4112 13.3806C23.4106 13.3774 23.4106 13.3742 23.41 13.371C23.41 13.3684 23.4094 13.3665 23.4094 13.3646C23.4088 13.3614 23.4088 13.3582 23.4082 13.3543C23.4082 13.3517 23.4076 13.3498 23.4076 13.3472C23.4076 13.3447 23.407 13.3415 23.407 13.3389C23.407 13.337 23.407 13.3351 23.4064 13.3331C23.4064 13.3293 23.4058 13.3254 23.4058 13.3222C23.4058 13.3203 23.4058 13.319 23.4058 13.3171C23.4058 13.3132 23.4058 13.3094 23.4058 13.3055C23.4058 13.3043 23.4058 13.303 23.4058 13.301C23.4058 13.2978 23.4058 13.2953 23.4058 13.2921C23.4058 13.2908 23.4058 13.2895 23.4058 13.2882C23.4058 13.2844 23.4064 13.2805 23.4064 13.2773C23.4064 13.276 23.4064 13.2747 23.407 13.2734C23.4076 13.2696 23.4076 13.2664 23.4082 13.2625C23.4082 13.2613 23.4082 13.2606 23.4088 13.2593C23.4094 13.2561 23.4094 13.2529 23.41 13.2497C23.41 13.2491 23.41 13.2478 23.4106 13.2471C23.4112 13.2433 23.4118 13.2401 23.4124 13.2362C23.4124 13.2349 23.413 13.2343 23.413 13.233C23.4136 13.2298 23.4148 13.226 23.4154 13.2228C23.4154 13.2221 23.416 13.2208 23.416 13.2202C23.4166 13.217 23.4178 13.2138 23.419 13.2106C23.419 13.2099 23.419 13.2099 23.4196 13.2093C23.4208 13.2061 23.422 13.2022 23.4232 13.199C23.4232 13.1984 23.4238 13.1977 23.4238 13.1964C23.425 13.1932 23.4262 13.19 23.4274 13.1868C23.4274 13.1862 23.428 13.1855 23.428 13.1849C23.4292 13.1817 23.431 13.1785 23.4322 13.1759C23.434 13.1727 23.4352 13.1689 23.437 13.1663C23.4376 13.1656 23.4376 13.165 23.4382 13.1644C23.44 13.1612 23.4418 13.1586 23.4436 13.156C23.4442 13.1554 23.4442 13.1547 23.4448 13.1547C23.4466 13.1515 23.4484 13.149 23.4508 13.1464C23.7442 12.7524 25.5347 13.5333 27.6342 15.2852C29.7337 17.0371 30.8711 18.6952 30.5777 19.0893Z" fill="url(#paint7_linear_1312_715)"/>
<path d="M19.7131 18.1601C19.7389 18.3546 19.9411 18.5118 20.2782 18.6286C20.9974 18.1171 22.5607 17.6089 24.4094 17.3381C26.2582 17.0673 27.8946 17.1071 28.72 17.3927C29.0139 17.1835 29.1669 16.9743 29.1411 16.7798C29.0517 16.1099 26.8688 15.8757 24.2655 16.2575C21.6621 16.638 19.6238 17.4902 19.7131 18.1601Z" fill="url(#paint8_linear_1312_715)"/>
<path d="M28.72 17.3927C28.4615 17.5762 28.0942 17.7591 27.6437 17.9317C27.6246 17.9388 27.6048 17.9465 27.585 17.9536C27.5844 17.9536 27.5838 17.9542 27.5832 17.9542C27.5646 17.9613 27.5454 17.9683 27.5262 17.9754C27.525 17.976 27.5238 17.976 27.5226 17.9767C27.504 17.9837 27.4854 17.9901 27.4662 17.9972C27.4644 17.9978 27.4626 17.9985 27.4608 17.9991C27.4422 18.0055 27.4242 18.012 27.4056 18.019C27.4032 18.0197 27.4008 18.0209 27.3978 18.0216C27.3798 18.028 27.3618 18.0344 27.3438 18.0402C27.3408 18.0415 27.3378 18.0421 27.3348 18.0434C27.3174 18.0492 27.2994 18.0556 27.2814 18.0614C27.2778 18.0627 27.2742 18.0639 27.2706 18.0652C27.2532 18.071 27.2358 18.0768 27.2185 18.0826C27.2143 18.0838 27.2095 18.0858 27.2053 18.087C27.1885 18.0928 27.1717 18.098 27.1543 18.1037C27.1495 18.1057 27.1441 18.1069 27.1393 18.1089C27.1225 18.114 27.1063 18.1198 27.0895 18.1249C27.0835 18.1268 27.0781 18.1288 27.0721 18.13C27.0559 18.1352 27.0397 18.1403 27.0235 18.1454C27.0169 18.1474 27.0103 18.1493 27.0043 18.1512C26.9887 18.1563 26.9731 18.1608 26.9569 18.166C26.9497 18.1679 26.9431 18.1705 26.9359 18.1724C26.9209 18.1769 26.9053 18.1814 26.8897 18.1865C26.8819 18.1891 26.8741 18.191 26.8663 18.1936C26.8513 18.1981 26.8369 18.2025 26.8219 18.2064C26.8135 18.209 26.8046 18.2115 26.7962 18.2141C26.7818 18.218 26.7674 18.2224 26.753 18.2263C26.744 18.2289 26.7344 18.2314 26.7254 18.234C26.0913 18.4143 25.3655 18.5696 24.5893 18.6832C23.8131 18.7968 23.0746 18.8558 22.4178 18.8648C22.4082 18.8648 22.3986 18.8648 22.389 18.8654C22.374 18.8654 22.359 18.8661 22.3446 18.8661C22.3356 18.8661 22.3266 18.8661 22.3182 18.8661C22.3026 18.8661 22.2876 18.8661 22.272 18.8661C22.2636 18.8661 22.2558 18.8661 22.2474 18.8661C22.2312 18.8661 22.2156 18.8661 22.1994 18.8661C22.1922 18.8661 22.185 18.8661 22.1772 18.8661C22.1611 18.8661 22.1443 18.8661 22.1281 18.8654C22.1215 18.8654 22.1143 18.8654 22.1077 18.8654C22.0909 18.8654 22.0741 18.8648 22.0573 18.8648C22.0513 18.8648 22.0453 18.8648 22.0393 18.8648C22.0219 18.8648 22.0045 18.8642 21.9871 18.8635C21.9817 18.8635 21.9763 18.8635 21.9709 18.8629C21.9529 18.8622 21.9355 18.8622 21.9175 18.8616C21.9127 18.8616 21.9079 18.8616 21.9037 18.8609C21.8857 18.8603 21.8671 18.8597 21.8491 18.859C21.8455 18.859 21.8413 18.859 21.8377 18.8584C21.8191 18.8577 21.8005 18.8571 21.7819 18.8565C21.7789 18.8565 21.7753 18.8565 21.7723 18.8558C21.7532 18.8552 21.734 18.8539 21.7154 18.8532C21.713 18.8532 21.71 18.8532 21.7076 18.8526C21.6878 18.852 21.6686 18.8507 21.6494 18.8494C21.6476 18.8494 21.6452 18.8494 21.6434 18.8487C21.6236 18.8475 21.6038 18.8468 21.584 18.8455C21.5828 18.8455 21.581 18.8455 21.5798 18.8455C21.5594 18.8443 21.5396 18.843 21.5192 18.8417C21.5186 18.8417 21.518 18.8417 21.5168 18.8417C21.4964 18.8404 21.4754 18.8391 21.4556 18.8372C20.9775 18.8013 20.5751 18.7306 20.2782 18.6286C20.1084 18.5702 19.9734 18.5003 19.8774 18.4214L19.8024 17.8605C19.1696 18.884 20.0214 19.5027 20.0214 19.5027C20.584 19.9653 22.5048 20.0898 24.7332 19.7638C26.9623 19.4372 28.7769 18.766 29.1968 18.1589C29.1968 18.1589 29.8542 17.3202 28.9778 16.5174L29.0528 17.0776C28.9808 17.1809 28.8682 17.2874 28.72 17.3927Z" fill="url(#paint9_linear_1312_715)"/>
<path d="M19.7131 18.1601C19.7137 18.1627 19.7137 18.1662 19.7143 18.1688C19.7143 18.1695 19.7149 18.1707 19.7149 18.1714C19.7155 18.1733 19.7155 18.1752 19.7161 18.1772C19.7161 18.1784 19.7167 18.1791 19.7167 18.1804C19.7173 18.1823 19.7173 18.1842 19.7179 18.1861C19.7179 18.1874 19.7185 18.1881 19.7185 18.1894C19.7191 18.1913 19.7191 18.1932 19.7197 18.1951C19.7197 18.1958 19.7203 18.1971 19.7203 18.1977C19.7209 18.1996 19.7215 18.2022 19.7221 18.2041C19.7221 18.2048 19.7227 18.2054 19.7227 18.206C19.7251 18.2144 19.7281 18.2234 19.7311 18.2317C19.7323 18.2343 19.7335 18.2375 19.7347 18.24C19.7347 18.2407 19.7347 18.2407 19.7353 18.2413C19.7365 18.2439 19.7377 18.2465 19.7389 18.249C20.0023 18.8503 22.1048 19.048 24.59 18.6841C27.0752 18.3203 29.0457 17.5271 29.1417 16.8732C29.1423 16.8706 29.1423 16.8668 29.1429 16.8642C29.1429 16.8636 29.1429 16.8636 29.1429 16.8629C29.1435 16.8604 29.1435 16.8578 29.1435 16.8546C29.1435 16.854 29.1435 16.854 29.1435 16.8533C29.1441 16.8443 29.1447 16.8353 29.1447 16.8264C29.1447 16.8257 29.1447 16.8251 29.1447 16.8244C29.1447 16.8225 29.1447 16.8199 29.1447 16.818C29.1447 16.8174 29.1447 16.8161 29.1447 16.8155C29.1447 16.8135 29.1447 16.8116 29.1447 16.8097C29.1447 16.8084 29.1447 16.8078 29.1447 16.8065C29.1447 16.8045 29.1447 16.8026 29.1441 16.8007C29.1441 16.7994 29.1441 16.7988 29.1441 16.7975C29.1441 16.7956 29.1435 16.7936 29.1435 16.7917C29.1435 16.7911 29.1435 16.7898 29.1435 16.7891C29.1429 16.7866 29.1429 16.7834 29.1423 16.7808C29.0529 16.1109 26.87 15.8766 24.2667 16.2584C21.6621 16.6383 19.6238 17.4902 19.7131 18.1601ZM28.9042 16.8142C28.9047 16.8174 28.9048 16.8212 28.9054 16.8251C28.9054 16.8257 28.9054 16.8264 28.9054 16.827C28.9054 16.8302 28.906 16.8341 28.906 16.8373C28.906 16.8379 28.906 16.8386 28.906 16.8392C28.906 16.843 28.906 16.8463 28.906 16.8501C28.906 16.8533 28.9054 16.8578 28.9054 16.861C28.9054 16.8617 28.9054 16.8623 28.9054 16.8629C28.9048 16.8661 28.9047 16.87 28.9042 16.8732C28.9042 16.8738 28.9042 16.8751 28.9036 16.8758C28.903 16.879 28.9024 16.8828 28.9018 16.8867C28.9018 16.8873 28.9018 16.8873 28.9018 16.888C28.9012 16.8912 28.9006 16.8944 28.8994 16.8976C28.8994 16.8982 28.8988 16.8995 28.8988 16.9002C28.8982 16.9034 28.897 16.9072 28.8958 16.9104C28.8958 16.9117 28.8952 16.9123 28.8952 16.9136C28.894 16.9168 28.8928 16.9207 28.8916 16.9239C28.8916 16.9245 28.891 16.9252 28.891 16.9265C28.8898 16.9297 28.8886 16.9322 28.8874 16.9355C28.8868 16.9367 28.8868 16.9374 28.8862 16.9387C28.885 16.9419 28.8832 16.9451 28.882 16.9489C28.8814 16.9502 28.8808 16.9515 28.8802 16.9528C28.879 16.956 28.8772 16.9592 28.8754 16.963C28.8748 16.9643 28.8742 16.9656 28.8736 16.9663C28.8724 16.9688 28.8712 16.9714 28.8694 16.974C28.8688 16.9752 28.8682 16.9765 28.8676 16.9778C28.8658 16.981 28.864 16.9842 28.8622 16.9874C28.8616 16.9887 28.8604 16.9906 28.8598 16.9919C28.858 16.9951 28.8562 16.9983 28.8544 17.0015C28.8532 17.0028 28.8526 17.0048 28.8514 17.006C28.8502 17.0086 28.8484 17.0105 28.8472 17.0131C28.846 17.015 28.8448 17.0169 28.8436 17.0189C28.8418 17.0214 28.84 17.024 28.8382 17.0272C28.837 17.0291 28.8358 17.0311 28.8346 17.0323C28.8328 17.0349 28.831 17.0375 28.8292 17.0401C28.8274 17.0426 28.8256 17.0445 28.8238 17.0471C28.8226 17.049 28.8208 17.051 28.8196 17.0522C28.8172 17.0555 28.8148 17.058 28.8124 17.0612C28.8112 17.0632 28.8094 17.0651 28.8082 17.0664C28.8064 17.0683 28.8046 17.0709 28.8028 17.0728C28.8016 17.0747 28.7998 17.076 28.7986 17.0779C28.7956 17.0811 28.7926 17.0843 28.7902 17.0882C28.789 17.0895 28.7878 17.0907 28.7866 17.092C28.783 17.0959 28.7794 17.0997 28.7758 17.1036C28.7746 17.1049 28.774 17.1055 28.7728 17.1068C28.7704 17.1094 28.768 17.1119 28.7656 17.1145C28.7608 17.1196 28.7554 17.1254 28.75 17.1299C28.7494 17.1305 28.7482 17.1318 28.7476 17.1325C28.7428 17.1369 28.738 17.1414 28.7332 17.1466C28.7326 17.1472 28.732 17.1479 28.7314 17.1485C28.723 17.1568 28.714 17.1645 28.705 17.1729C28.7044 17.1735 28.7044 17.1735 28.7038 17.1742C28.6978 17.1793 28.6918 17.1844 28.6858 17.1902C28.6336 17.2351 28.5712 17.282 28.5016 17.3288C27.8418 17.7677 26.4207 18.2554 24.569 18.5262C22.7172 18.7977 21.223 18.7367 20.4738 18.5044C20.3946 18.48 20.3232 18.4531 20.2608 18.4249C20.2536 18.4216 20.2458 18.4184 20.2386 18.4146C20.238 18.4146 20.2374 18.4139 20.2368 18.4139C20.226 18.4088 20.2152 18.4037 20.205 18.3979C20.2044 18.3973 20.2038 18.3973 20.2026 18.3966C20.1966 18.3934 20.1912 18.3902 20.1852 18.3876C20.184 18.387 20.1828 18.3864 20.1822 18.3857C20.1762 18.3825 20.1702 18.3787 20.1642 18.3754C20.1612 18.3735 20.1576 18.3716 20.1552 18.3697C20.154 18.369 20.1528 18.3684 20.1516 18.3671C20.1474 18.3645 20.1426 18.362 20.1384 18.3588C20.1366 18.3581 20.1354 18.3568 20.1336 18.3562C20.13 18.3536 20.1264 18.3517 20.1228 18.3491C20.121 18.3479 20.1192 18.3466 20.1174 18.3453C20.115 18.344 20.1126 18.3421 20.1108 18.3408C20.109 18.3395 20.1072 18.3382 20.1054 18.3369C20.1025 18.335 20.0995 18.3325 20.0965 18.3305C20.0947 18.3292 20.0929 18.328 20.0911 18.3267C20.0887 18.3248 20.0863 18.3235 20.0845 18.3215C20.0821 18.3196 20.0797 18.3177 20.0773 18.3158C20.0755 18.3145 20.0737 18.3132 20.0725 18.3119C20.0701 18.31 20.0677 18.3081 20.0653 18.3055C20.0635 18.3042 20.0617 18.3023 20.0599 18.301C20.0581 18.2991 20.0557 18.2978 20.0539 18.2959C20.0527 18.2946 20.0515 18.2933 20.0497 18.292C20.0467 18.2895 20.0443 18.2869 20.0419 18.2843C20.0407 18.283 20.0395 18.2818 20.0383 18.2805C20.0359 18.2779 20.0329 18.2753 20.0305 18.2728C20.0293 18.2715 20.0287 18.2708 20.0275 18.2696C20.0257 18.2676 20.0233 18.2651 20.0215 18.2631C20.0209 18.2625 20.0197 18.2612 20.0191 18.2606C20.0167 18.258 20.0143 18.2548 20.0119 18.2522C20.0113 18.251 20.0101 18.2503 20.0095 18.249C20.0071 18.2465 20.0047 18.2433 20.0029 18.2407C20.0023 18.24 20.0017 18.2388 20.0011 18.2381C19.9993 18.2356 19.9975 18.233 19.9957 18.2304C19.9951 18.2298 19.9945 18.2291 19.9945 18.2285C19.9927 18.2253 19.9903 18.2227 19.9885 18.2195C19.9879 18.2189 19.9873 18.2176 19.9867 18.2169C19.9849 18.2137 19.9831 18.2112 19.9813 18.208C19.9807 18.2073 19.9807 18.2067 19.9801 18.206C19.9783 18.2028 19.9771 18.2003 19.9753 18.1971C19.9753 18.1964 19.9747 18.1964 19.9747 18.1958C19.9729 18.1926 19.9717 18.1894 19.9699 18.1861C19.9693 18.1855 19.9693 18.1849 19.9687 18.1842C19.9675 18.181 19.9663 18.1778 19.9651 18.1746C19.9651 18.1739 19.9645 18.1733 19.9645 18.1727C19.9633 18.1695 19.9621 18.1662 19.9609 18.163C19.9597 18.1598 19.9591 18.1553 19.9579 18.1521C19.9579 18.1515 19.9573 18.1508 19.9573 18.1502C19.9567 18.147 19.9555 18.1438 19.9549 18.1399C19.9549 18.1393 19.9549 18.1387 19.9543 18.138C19.9537 18.1348 19.9531 18.131 19.9525 18.1277C19.8859 17.6291 21.6501 16.8039 24.2883 16.4176C26.9264 16.0313 28.8376 16.3156 28.9042 16.8142Z" fill="url(#paint10_linear_1312_715)"/>
<path d="M23.2631 12.9872C23.2613 12.9898 23.2595 12.9917 23.2583 12.9943C23.2577 12.9949 23.2571 12.9956 23.2565 12.9962C23.2553 12.9975 23.2541 12.9994 23.2535 13.0007C23.2529 13.0014 23.2523 13.0026 23.2517 13.0033C23.2505 13.0046 23.2499 13.0065 23.2487 13.0078C23.2481 13.0084 23.2475 13.0097 23.2469 13.0104C23.2457 13.0123 23.2451 13.0136 23.2439 13.0155C23.2433 13.0161 23.2427 13.0174 23.2427 13.0181C23.2415 13.02 23.2403 13.0219 23.2397 13.0238C23.2391 13.0245 23.2391 13.0251 23.2385 13.0258C23.2343 13.0335 23.2307 13.0418 23.2271 13.0495C23.2259 13.0521 23.2247 13.0553 23.2235 13.0578C23.2235 13.0585 23.2235 13.0585 23.2229 13.0591C23.2217 13.0617 23.2211 13.0643 23.2199 13.0668C22.9937 13.6822 24.323 15.4257 26.3013 17.0762C28.2797 18.7267 30.1914 19.6873 30.7037 19.3106C30.7061 19.3087 30.7085 19.3074 30.7109 19.3055C30.7127 19.3036 30.7157 19.3017 30.7175 19.2997C30.7241 19.294 30.7313 19.2875 30.7373 19.2818C30.7379 19.2811 30.7385 19.2811 30.7385 19.2805C30.7403 19.2792 30.7415 19.2773 30.7427 19.276C30.7433 19.2753 30.7439 19.2747 30.7445 19.2741C30.7457 19.2728 30.7469 19.2715 30.7481 19.2702C30.7487 19.2696 30.7493 19.2689 30.7499 19.2676C30.7511 19.2664 30.7523 19.2651 30.7535 19.2638C30.7541 19.2632 30.7547 19.2625 30.7553 19.2612C30.7565 19.2599 30.7577 19.258 30.7589 19.2567C30.7595 19.2561 30.7601 19.2555 30.7607 19.2548C30.7625 19.2529 30.7643 19.2503 30.7661 19.2484C31.1602 18.719 29.7997 16.8888 27.7278 15.1601C27.1843 14.7064 26.6457 14.3053 26.1394 13.9691C24.7177 13.0232 23.5534 12.5964 23.2631 12.9872ZM30.5777 19.0893C30.5759 19.0918 30.5735 19.095 30.5711 19.0976C30.5705 19.0982 30.5705 19.0989 30.5699 19.0989C30.5675 19.1014 30.5657 19.104 30.5633 19.1066C30.5627 19.1072 30.5621 19.1072 30.5621 19.1079C30.5597 19.1104 30.5573 19.113 30.5549 19.1149C30.5525 19.1175 30.5495 19.1201 30.5465 19.122C30.5459 19.1226 30.5453 19.1226 30.5447 19.1233C30.5423 19.1252 30.5393 19.1278 30.5369 19.1297C30.5363 19.1303 30.5357 19.1303 30.5351 19.131C30.5321 19.1329 30.5297 19.1348 30.5267 19.1367C30.5261 19.1367 30.5261 19.1374 30.5255 19.1374C30.5231 19.1393 30.5201 19.1406 30.5171 19.1425C30.5165 19.1432 30.5159 19.1432 30.5153 19.1438C30.5123 19.1457 30.5093 19.147 30.5063 19.1489C30.5057 19.1496 30.5045 19.1496 30.5039 19.1502C30.5009 19.1515 30.4979 19.1534 30.4943 19.1547C30.4937 19.1554 30.4931 19.1553 30.4919 19.1553C30.4889 19.1566 30.4865 19.1579 30.4835 19.1592C30.4823 19.1598 30.4817 19.1598 30.4805 19.1605C30.4775 19.1618 30.474 19.163 30.471 19.1643C30.4698 19.165 30.4685 19.165 30.4673 19.1656C30.4637 19.1669 30.4608 19.1682 30.4572 19.1688C30.456 19.1695 30.4548 19.1695 30.4536 19.1701C30.4506 19.1708 30.4482 19.172 30.4452 19.1727C30.444 19.1733 30.4428 19.1733 30.441 19.174C30.4374 19.1746 30.4344 19.1759 30.4308 19.1765C30.429 19.1772 30.4278 19.1772 30.426 19.1778C30.4224 19.1785 30.4194 19.1791 30.4158 19.1797C30.414 19.1804 30.4122 19.1804 30.4104 19.1804C30.408 19.181 30.4056 19.181 30.4026 19.1817C30.4002 19.1823 30.3984 19.1823 30.396 19.1829C30.393 19.1836 30.39 19.1836 30.3864 19.1842C30.384 19.1842 30.3822 19.1849 30.3798 19.1849C30.3768 19.1855 30.3738 19.1855 30.3708 19.1862C30.3678 19.1862 30.3654 19.1868 30.3624 19.1868C30.36 19.1868 30.3582 19.1874 30.3558 19.1874C30.3522 19.1874 30.3486 19.1881 30.345 19.1881C30.3426 19.1881 30.3402 19.1881 30.3384 19.1887C30.336 19.1887 30.333 19.1887 30.3306 19.1894C30.3282 19.1894 30.3264 19.1894 30.324 19.1894C30.3198 19.1894 30.3156 19.1894 30.3114 19.1894C30.3096 19.1894 30.3078 19.1894 30.306 19.1894C30.3012 19.1894 30.2958 19.1894 30.291 19.1894C30.2898 19.1894 30.288 19.1894 30.2868 19.1894C30.2838 19.1894 30.2802 19.1894 30.2766 19.1894C30.27 19.1894 30.2622 19.1887 30.2556 19.1887C30.2544 19.1887 30.2532 19.1887 30.252 19.1887C30.2454 19.1881 30.2394 19.1881 30.2328 19.1874C30.2322 19.1874 30.231 19.1874 30.2304 19.1874C30.219 19.1868 30.2076 19.1855 30.1956 19.1842C30.195 19.1842 30.1944 19.1842 30.1938 19.1842C30.186 19.1836 30.1782 19.1823 30.1704 19.181C30.1032 19.172 30.0283 19.1566 29.9479 19.1355C29.1897 18.9333 27.8682 18.1819 26.3943 16.9524C24.9205 15.7229 23.9211 14.5383 23.5582 13.8054C23.5198 13.7278 23.4886 13.6553 23.4646 13.5879C23.4616 13.5802 23.4592 13.5718 23.4562 13.5641C23.4562 13.5635 23.4556 13.5629 23.4556 13.5622C23.4514 13.55 23.4478 13.5385 23.4442 13.5269C23.4442 13.5263 23.4436 13.525 23.4436 13.5244C23.4418 13.5179 23.4394 13.5115 23.4376 13.5045C23.437 13.5032 23.437 13.5019 23.4364 13.5006C23.4346 13.4936 23.4328 13.4865 23.431 13.4801C23.4304 13.4769 23.4292 13.4724 23.4286 13.4692C23.428 13.4679 23.428 13.466 23.4274 13.4647C23.4262 13.4595 23.425 13.4544 23.4238 13.4493C23.4232 13.4474 23.4232 13.4454 23.4226 13.4441C23.4214 13.4397 23.4208 13.4352 23.4196 13.4307C23.419 13.4281 23.4184 13.4262 23.4184 13.4236C23.4178 13.421 23.4172 13.4178 23.4166 13.4153C23.416 13.4127 23.416 13.4108 23.4154 13.4082C23.4148 13.4044 23.4142 13.4005 23.4136 13.3967C23.413 13.3941 23.413 13.3922 23.4124 13.3896C23.4118 13.3864 23.4118 13.3838 23.4112 13.3806C23.4106 13.3774 23.4106 13.3742 23.41 13.371C23.41 13.3684 23.4094 13.3665 23.4094 13.3646C23.4088 13.3614 23.4088 13.3582 23.4082 13.3543C23.4082 13.3517 23.4076 13.3498 23.4076 13.3472C23.4076 13.3447 23.407 13.3415 23.407 13.3389C23.407 13.337 23.407 13.3351 23.4064 13.3331C23.4064 13.3293 23.4058 13.3254 23.4058 13.3222C23.4058 13.3203 23.4058 13.319 23.4058 13.3171C23.4058 13.3132 23.4058 13.3094 23.4058 13.3055C23.4058 13.3043 23.4058 13.303 23.4058 13.301C23.4058 13.2978 23.4058 13.2953 23.4058 13.2921C23.4058 13.2908 23.4058 13.2895 23.4058 13.2882C23.4058 13.2844 23.4064 13.2805 23.4064 13.2773C23.4064 13.276 23.4064 13.2747 23.407 13.2734C23.4076 13.2696 23.4076 13.2664 23.4082 13.2625C23.4082 13.2613 23.4082 13.2606 23.4088 13.2593C23.4094 13.2561 23.4094 13.2529 23.41 13.2497C23.41 13.2491 23.41 13.2478 23.4106 13.2471C23.4112 13.2433 23.4118 13.2401 23.4124 13.2362C23.4124 13.2349 23.413 13.2343 23.413 13.233C23.4136 13.2298 23.4148 13.226 23.4154 13.2228C23.4154 13.2221 23.416 13.2208 23.416 13.2202C23.4166 13.217 23.4178 13.2138 23.419 13.2106C23.419 13.2099 23.419 13.2099 23.4196 13.2093C23.4208 13.2061 23.422 13.2022 23.4232 13.199C23.4232 13.1984 23.4238 13.1977 23.4238 13.1964C23.425 13.1932 23.4262 13.19 23.4274 13.1868C23.4274 13.1862 23.428 13.1855 23.428 13.1849C23.4292 13.1817 23.431 13.1785 23.4322 13.1759C23.434 13.1727 23.4352 13.1689 23.437 13.1663C23.4376 13.1656 23.4376 13.165 23.4382 13.1644C23.44 13.1612 23.4418 13.1586 23.4436 13.156C23.4442 13.1554 23.4442 13.1547 23.4448 13.1547C23.4466 13.1515 23.4484 13.149 23.4508 13.1464C23.7442 12.7524 25.5347 13.5333 27.6342 15.2852C29.7337 17.0371 30.8711 18.6952 30.5777 19.0893Z" fill="url(#paint11_linear_1312_715)"/>
<path d="M27.5106 17.8177C27.6192 17.6778 29.192 16.0023 29.192 16.0023C30.9172 14.3184 32 11.8934 32 9.19824L28.1477 9.32851C28.1477 11.1728 27.1099 12.8464 26.0272 14.1041C26.0272 14.1041 25.8832 14.2639 25.7051 14.45C25.5209 14.6419 24.7831 15.4356 24.7831 15.4356C25.3997 16.1556 26.795 17.3216 27.5106 17.8177Z" fill="white"/>
<path d="M45.8893 27.512C45.0573 27.512 44.2893 27.3627 43.5853 27.064C42.9026 26.7653 42.3479 26.36 41.9212 25.848C41.5159 25.336 41.3133 24.7493 41.3133 24.088C41.3133 23.4053 41.4946 22.7973 41.8573 22.264C42.2413 21.7307 42.7959 21.4533 43.5213 21.432C44.3319 21.3893 44.9079 21.592 45.2492 22.04C45.6119 22.4667 45.8039 22.9573 45.8252 23.512C45.8466 23.6827 45.8252 23.8747 45.7612 24.088C45.7186 24.3013 45.6439 24.504 45.5373 24.696C45.6439 24.9093 45.8039 25.048 46.0173 25.112C46.2519 25.176 46.4226 25.208 46.5293 25.208C46.9773 25.208 47.3186 25.016 47.5532 24.632C47.8092 24.2267 47.9372 23.576 47.9372 22.68V9.848C47.9372 9.272 47.9479 8.71733 47.9692 8.184C47.9906 7.65067 48.0226 7.24533 48.0653 6.968C47.7239 6.98933 47.2973 7.01067 46.7853 7.032C46.2733 7.032 45.8999 7.04267 45.6652 7.064V4.6H54.8493V6.712C54.3799 6.73333 53.9746 6.79733 53.6333 6.904C53.2919 7.01067 53.0253 7.256 52.8333 7.64C52.6626 8.00267 52.5773 8.62133 52.5773 9.496V18.872C52.5773 21.944 52.0013 24.152 50.8493 25.496C49.6973 26.84 48.0439 27.512 45.8893 27.512Z" fill="white"/>
<path d="M62.9673 27.512C61.6873 27.512 60.6526 27.2667 59.8633 26.776C59.0953 26.2853 58.5299 25.5173 58.1673 24.472C57.8259 23.4267 57.6553 22.0827 57.6553 20.44V16.76C57.6553 16.376 57.6659 15.9387 57.6872 15.448C57.7086 14.936 57.7299 14.4453 57.7513 13.976C57.4099 13.9973 57.0046 14.0187 56.5353 14.04C56.0873 14.04 55.7459 14.0507 55.5112 14.072V11.64H55.8312C57.1539 11.64 58.1993 11.5333 58.9673 11.32C59.7353 11.1067 60.2259 10.8933 60.4393 10.68H62.1992V20.472C62.1992 21.8587 62.3806 22.8933 62.7433 23.576C63.1059 24.2373 63.6819 24.568 64.4713 24.568C65.0259 24.568 65.5806 24.4187 66.1353 24.12C66.7113 23.8 67.1806 23.4373 67.5433 23.032V16.76C67.5433 16.376 67.5539 15.9387 67.5752 15.448C67.5966 14.936 67.6286 14.4453 67.6712 13.976C67.3299 13.9973 66.9246 14.0187 66.4553 14.04C66.0073 14.04 65.6659 14.0507 65.4313 14.072V11.64H66.1992C67.2019 11.64 68.0872 11.5333 68.8552 11.32C69.6232 11.0853 70.1139 10.872 70.3272 10.68H72.0872V21.848C72.0872 22.1467 72.0766 22.5733 72.0553 23.128C72.0339 23.6613 72.0019 24.1733 71.9593 24.664C72.3006 24.6213 72.6739 24.6 73.0793 24.6C73.5059 24.5787 73.8259 24.568 74.0393 24.568V27H67.9593C67.9379 26.7227 67.9059 26.4453 67.8633 26.168C67.8419 25.8907 67.8099 25.6133 67.7673 25.336C67.1059 25.8907 66.3913 26.392 65.6233 26.84C64.8766 27.288 63.9913 27.512 62.9673 27.512Z" fill="white"/>
<path d="M83.4845 27.512C82.5672 27.512 81.6712 27.3947 80.7965 27.16C79.9218 26.9253 79.2392 26.6267 78.7485 26.264L78.8125 27.224H76.3805L76.2525 21.72H78.3325C78.3965 22.36 78.6525 22.9467 79.1005 23.48C79.5485 24.0133 80.1352 24.44 80.8605 24.76C81.5858 25.0587 82.3965 25.208 83.2925 25.208C83.6552 25.208 83.9965 25.1547 84.3165 25.048C84.6578 24.9413 84.9352 24.7707 85.1485 24.536C85.3832 24.28 85.5005 23.9707 85.5005 23.608C85.5005 23.2027 85.3512 22.872 85.0525 22.616C84.7752 22.36 84.3592 22.1147 83.8045 21.88C83.2712 21.6453 82.5992 21.3787 81.7885 21.08C81.1272 20.824 80.4552 20.5573 79.7725 20.28C79.1112 20.0027 78.4925 19.672 77.9165 19.288C77.3618 18.8827 76.9138 18.392 76.5725 17.816C76.2312 17.2187 76.0605 16.4933 76.0605 15.64C76.0605 15.0213 76.1778 14.4133 76.4125 13.816C76.6472 13.1973 77.0098 12.6427 77.5005 12.152C77.9912 11.64 78.6098 11.2347 79.3565 10.936C80.1245 10.6373 81.0312 10.488 82.0765 10.488C82.6525 10.488 83.3032 10.584 84.0285 10.776C84.7752 10.9467 85.4045 11.2133 85.9165 11.576V10.648H88.3485V16.312H86.2685C86.1405 15.5653 85.8738 14.9253 85.4685 14.392C85.0845 13.8587 84.5832 13.4533 83.9645 13.176C83.3458 12.8773 82.6525 12.728 81.8845 12.728C81.3512 12.728 80.8605 12.856 80.4125 13.112C79.9858 13.368 79.7725 13.8053 79.7725 14.424C79.7725 14.9147 79.9432 15.3093 80.2845 15.608C80.6258 15.8853 81.0952 16.12 81.6925 16.312C82.2898 16.504 82.9512 16.728 83.6765 16.984C84.7645 17.3467 85.7245 17.7733 86.5565 18.264C87.4098 18.7547 88.0818 19.352 88.5725 20.056C89.0632 20.7387 89.3085 21.5813 89.3085 22.584C89.3085 23.6933 89.0312 24.6107 88.4765 25.336C87.9218 26.0613 87.1965 26.6053 86.3005 26.968C85.4258 27.3307 84.4872 27.512 83.4845 27.512Z" fill="white"/>
<path d="M108.175 11.832C108.175 10.68 108.015 9.73067 107.695 8.984C107.375 8.216 106.917 7.65067 106.319 7.288C105.743 6.904 105.05 6.72267 104.239 6.744H102.703V21.752C102.703 22.328 102.693 22.8827 102.671 23.416C102.65 23.9493 102.618 24.3547 102.575 24.632C102.938 24.5893 103.397 24.568 103.951 24.568C104.527 24.5467 104.922 24.536 105.135 24.536V27H95.7913V24.888C96.2819 24.8667 96.6872 24.8027 97.0072 24.696C97.3486 24.5893 97.6046 24.344 97.7753 23.96C97.9673 23.576 98.0632 22.9573 98.0632 22.104V6.776H96.5912C95.3752 6.79733 94.4153 7.21333 93.7113 8.024C93.0073 8.83467 92.6553 10.104 92.6553 11.832H90.5433L90.7032 4.6H110.095L110.287 11.832H108.175Z" fill="white"/>
<path d="M118.78 27.512C117.5 27.512 116.465 27.2667 115.676 26.776C114.908 26.2853 114.342 25.5173 113.98 24.472C113.638 23.4267 113.468 22.0827 113.468 20.44V16.76C113.468 16.376 113.478 15.9387 113.5 15.448C113.521 14.936 113.542 14.4453 113.564 13.976C113.222 13.9973 112.817 14.0187 112.348 14.04C111.9 14.04 111.558 14.0507 111.324 14.072V11.64H111.644C112.966 11.64 114.012 11.5333 114.78 11.32C115.548 11.1067 116.038 10.8933 116.252 10.68H118.012V20.472C118.012 21.8587 118.193 22.8933 118.556 23.576C118.918 24.2373 119.494 24.568 120.284 24.568C120.838 24.568 121.393 24.4187 121.948 24.12C122.524 23.8 122.993 23.4373 123.356 23.032V16.76C123.356 16.376 123.366 15.9387 123.388 15.448C123.409 14.936 123.441 14.4453 123.484 13.976C123.142 13.9973 122.737 14.0187 122.268 14.04C121.82 14.04 121.478 14.0507 121.244 14.072V11.64H122.012C123.014 11.64 123.9 11.5333 124.668 11.32C125.436 11.0853 125.926 10.872 126.14 10.68H127.9V21.848C127.9 22.1467 127.889 22.5733 127.868 23.128C127.846 23.6613 127.814 24.1733 127.772 24.664C128.113 24.6213 128.486 24.6 128.892 24.6C129.318 24.5787 129.638 24.568 129.852 24.568V27H123.772C123.75 26.7227 123.718 26.4453 123.676 26.168C123.654 25.8907 123.622 25.6133 123.58 25.336C122.918 25.8907 122.204 26.392 121.436 26.84C120.689 27.288 119.804 27.512 118.78 27.512Z" fill="white"/>
<path d="M131.937 24.92C132.534 24.92 132.961 24.8027 133.217 24.568C133.473 24.3333 133.633 24.0027 133.697 23.576C133.782 23.128 133.825 22.6267 133.825 22.072V16.696C133.825 16.312 133.836 15.8853 133.857 15.416C133.878 14.9253 133.91 14.4453 133.953 13.976C133.612 13.9973 133.206 14.0187 132.737 14.04C132.289 14.04 131.948 14.0507 131.713 14.072V11.64H132.993C133.825 11.64 134.582 11.5333 135.265 11.32C135.969 11.1067 136.428 10.8933 136.641 10.68H138.209C138.252 10.8933 138.284 11.2987 138.305 11.896C138.326 12.472 138.337 12.984 138.337 13.432C138.913 12.728 139.457 12.1627 139.969 11.736C140.481 11.3093 140.982 11 141.473 10.808C141.985 10.5947 142.497 10.488 143.009 10.488C143.756 10.488 144.406 10.7013 144.961 11.128C145.516 11.5333 145.793 12.2053 145.793 13.144C145.793 13.464 145.718 13.8053 145.569 14.168C145.42 14.5093 145.185 14.7973 144.865 15.032C144.545 15.2667 144.108 15.384 143.553 15.384C143.126 15.384 142.689 15.256 142.241 15C141.793 14.744 141.537 14.2533 141.473 13.528C141.046 13.528 140.62 13.7093 140.193 14.072C139.766 14.4133 139.382 14.8293 139.041 15.32C138.721 15.7893 138.497 16.2267 138.369 16.632V21.848C138.369 22.1467 138.358 22.5733 138.337 23.128C138.316 23.6613 138.284 24.1733 138.241 24.664C138.582 24.6213 138.956 24.6 139.361 24.6C139.788 24.5787 140.108 24.568 140.321 24.568V27H131.937V24.92Z" fill="white"/>
<path d="M146.519 27V24.92C147.116 24.92 147.543 24.8027 147.799 24.568C148.076 24.3333 148.247 24.0027 148.311 23.576C148.396 23.128 148.439 22.6267 148.439 22.072V8.92C148.439 8.536 148.449 8.09867 148.471 7.608C148.492 7.096 148.524 6.60533 148.567 6.136C148.225 6.15733 147.82 6.17867 147.351 6.2C146.903 6.2 146.561 6.21067 146.327 6.232V3.8C147.308 3.8 148.129 3.74667 148.791 3.64C149.473 3.53333 150.017 3.40533 150.423 3.256C150.828 3.10667 151.095 2.968 151.223 2.84H152.983V17.432H154.519L156.823 14.776C157.1 14.4773 157.324 14.2213 157.495 14.008C157.687 13.7947 157.879 13.6027 158.071 13.432H156.375V11H163.575V13.048C162.828 13.1333 162.167 13.3147 161.591 13.592C161.015 13.848 160.513 14.1573 160.087 14.52C159.681 14.8827 159.329 15.2347 159.031 15.576L156.983 17.88C157.303 18.0293 157.612 18.2533 157.911 18.552C158.231 18.8293 158.615 19.2667 159.063 19.864L161.207 22.68C161.335 22.8293 161.495 23.032 161.687 23.288C161.9 23.544 162.135 23.8 162.391 24.056C162.647 24.2907 162.924 24.4933 163.223 24.664C163.521 24.8347 163.831 24.92 164.151 24.92V27H160.471C159.788 27 159.191 26.7653 158.679 26.296C158.167 25.8053 157.58 25.112 156.919 24.216C156.535 23.704 156.129 23.16 155.703 22.584C155.297 21.9867 154.913 21.432 154.551 20.92C154.209 20.3867 153.932 19.9707 153.719 19.672L152.983 19.704V21.848C152.983 22.1467 152.972 22.5733 152.951 23.128C152.929 23.6613 152.897 24.1733 152.855 24.664C153.196 24.6213 153.569 24.6 153.975 24.6C154.38 24.5787 154.7 24.568 154.935 24.568V27H146.519Z" fill="white"/>
<defs>
<linearGradient id="paint0_linear_1312_715" x1="7.46928" y1="-0.290206" x2="27.3696" y2="68.0059" gradientUnits="userSpaceOnUse">
<stop stop-color="white"/>
<stop offset="0.0299" stop-color="#A88538"/>
<stop offset="0.3011" stop-color="#E1C467"/>
<stop offset="1" stop-color="#A17F33"/>
</linearGradient>
<linearGradient id="paint1_linear_1312_715" x1="1.09167" y1="20.6284" x2="158.766" y2="-9.62475" gradientUnits="userSpaceOnUse">
<stop stop-color="white"/>
<stop offset="0.3011" stop-color="#E1C467"/>
<stop offset="1" stop-color="#A17F33"/>
</linearGradient>
<linearGradient id="paint2_linear_1312_715" x1="165.237" y1="10.7005" x2="7.82598" y2="49.4721" gradientUnits="userSpaceOnUse">
<stop stop-color="#CEAB60"/>
<stop offset="0.3898" stop-color="#F3D865"/>
<stop offset="0.6443" stop-color="#FAF7D5"/>
<stop offset="0.8305" stop-color="#F3D865"/>
<stop offset="1" stop-color="#CEAB60"/>
</linearGradient>
<linearGradient id="paint3_linear_1312_715" x1="84.9321" y1="28.1633" x2="82.488" y2="1.68577" gradientUnits="userSpaceOnUse">
<stop stop-color="#FAF7D5"/>
<stop offset="1" stop-color="#F2D35A"/>
</linearGradient>
<linearGradient id="paint4_linear_1312_715" x1="74.1028" y1="17.8151" x2="95.2435" y2="-81.8774" gradientUnits="userSpaceOnUse">
<stop stop-color="#FAF7D5"/>
<stop offset="1" stop-color="#F2D35A"/>
</linearGradient>
<linearGradient id="paint5_linear_1312_715" x1="675.246" y1="449.272" x2="-152.75" y2="-252.213" gradientUnits="userSpaceOnUse">
<stop stop-color="#CEAB60"/>
<stop offset="0.3898" stop-color="#F3D865"/>
<stop offset="0.6443" stop-color="#FAF7D5"/>
<stop offset="0.8305" stop-color="#F3D865"/>
<stop offset="1" stop-color="#CEAB60"/>
</linearGradient>
<linearGradient id="paint6_linear_1312_715" x1="50.9474" y1="32.1301" x2="225.513" y2="-477.61" gradientUnits="userSpaceOnUse">
<stop stop-color="#FAF7D5"/>
<stop offset="1" stop-color="#F2D35A"/>
</linearGradient>
<linearGradient id="paint7_linear_1312_715" x1="66.8298" y1="19.502" x2="69.3306" y2="5.61113" gradientUnits="userSpaceOnUse">
<stop stop-color="#FAF7D5"/>
<stop offset="1" stop-color="#F2D35A"/>
</linearGradient>
<linearGradient id="paint8_linear_1312_715" x1="1.09167" y1="20.6284" x2="158.766" y2="-9.62475" gradientUnits="userSpaceOnUse">
<stop stop-color="white"/>
<stop offset="0.3011" stop-color="#E1C467"/>
<stop offset="1" stop-color="#A17F33"/>
</linearGradient>
<linearGradient id="paint9_linear_1312_715" x1="165.237" y1="10.7005" x2="7.82598" y2="49.4721" gradientUnits="userSpaceOnUse">
<stop stop-color="#CEAB60"/>
<stop offset="0.3898" stop-color="#F3D865"/>
<stop offset="0.6443" stop-color="#FAF7D5"/>
<stop offset="0.8305" stop-color="#F3D865"/>
<stop offset="1" stop-color="#CEAB60"/>
</linearGradient>
<linearGradient id="paint10_linear_1312_715" x1="84.9321" y1="28.1633" x2="82.488" y2="1.68577" gradientUnits="userSpaceOnUse">
<stop stop-color="#FAF7D5"/>
<stop offset="1" stop-color="#F2D35A"/>
</linearGradient>
<linearGradient id="paint11_linear_1312_715" x1="66.8298" y1="19.502" x2="69.3306" y2="5.61113" gradientUnits="userSpaceOnUse">
<stop stop-color="#FAF7D5"/>
<stop offset="1" stop-color="#F2D35A"/>
</linearGradient>
</defs>
</svg>
